<?xml version="1.0" encoding="UTF-8"?>
<!DOCTYPE score-partwise PUBLIC "-//Recordare//DTD MusicXML 4.0 Partwise//EN" "http://www.musicxml.org/dtds/partwise.dtd">
<score-partwise version="4.0">
  <work>
    <work-title>未命名乐谱</work-title>
    </work>
  <identification>
    <creator type="composer">作曲 / 编排</creator>
    <encoding>
      <software>MuseScore 4.5.2</software>
      <encoding-date>2025-05-15</encoding-date>
      <supports element="accidental" type="yes"/>
      <supports element="beam" type="yes"/>
      <supports element="print" attribute="new-page" type="yes" value="yes"/>
      <supports element="print" attribute="new-system" type="yes" value="yes"/>
      <supports element="stem" type="yes"/>
      </encoding>
    </identification>
  <defaults>
    <scaling>
      <millimeters>11.2776</millimeters>
      <tenths>40</tenths>
      </scaling>
    <page-layout>
      <page-height>1048.65</page-height>
      <page-width>745.045</page-width>
      <page-margins type="even">
        <left-margin>53.2028</left-margin>
        <right-margin>53.2028</right-margin>
        <top-margin>53.2028</top-margin>
        <bottom-margin>53.2028</bottom-margin>
        </page-margins>
      <page-margins type="odd">
        <left-margin>53.2028</left-margin>
        <right-margin>53.2028</right-margin>
        <top-margin>53.2028</top-margin>
        <bottom-margin>53.2028</bottom-margin>
        </page-margins>
      </page-layout>
    <appearance>
      <line-width type="light barline">1.8</line-width>
      <line-width type="heavy barline">5.5</line-width>
      <line-width type="beam">5</line-width>
      <line-width type="bracket">4.5</line-width>
      <line-width type="dashes">1</line-width>
      <line-width type="enclosure">1</line-width>
      <line-width type="ending">1.1</line-width>
      <line-width type="extend">1</line-width>
      <line-width type="leger">1.6</line-width>
      <line-width type="pedal">1.1</line-width>
      <line-width type="octave shift">1.1</line-width>
      <line-width type="slur middle">2.1</line-width>
      <line-width type="slur tip">0.5</line-width>
      <line-width type="staff">1.1</line-width>
      <line-width type="stem">1</line-width>
      <line-width type="tie middle">2.1</line-width>
      <line-width type="tie tip">0.5</line-width>
      <line-width type="tuplet bracket">1</line-width>
      <line-width type="wedge">1.2</line-width>
      <note-size type="cue">70</note-size>
      <note-size type="grace">70</note-size>
      <note-size type="grace-cue">49</note-size>
      </appearance>
    <music-font font-family="Leland"/>
    <word-font font-family="Edwin" font-size="10"/>
    <lyric-font font-family="Edwin" font-size="10"/>
    </defaults>
  <credit page="1">
    <credit-type>title</credit-type>
    <credit-words default-x="372.522523" default-y="995.445856" justify="center" valign="top" font-size="22">预备13-7</credit-words>
    </credit>
  <credit page="1">
    <credit-type>subtitle</credit-type>
    <credit-words default-x="372.522523" default-y="959.977316" justify="center" valign="top" font-size="14">扬基歌</credit-words>
    </credit>
  <credit page="1">
    <credit-type>composer</credit-type>
    <credit-words default-x="691.842252" default-y="933.383794" justify="right" valign="bottom">作曲 / 编排</credit-words>
    </credit>
  <part-list>
    <score-part id="P1">
      <part-name>古典吉他</part-name>
      <part-abbreviation>Guit.</part-abbreviation>
      <score-instrument id="P1-I1">
        <instrument-name>古典吉他</instrument-name>
        <instrument-sound>pluck.guitar.nylon-string</instrument-sound>
        </score-instrument>
      <midi-device id="P1-I1" port="1"></midi-device>
      <midi-instrument id="P1-I1">
        <midi-channel>1</midi-channel>
        <midi-program>25</midi-program>
        <volume>78.7402</volume>
        <pan>0</pan>
        </midi-instrument>
      </score-part>
    </part-list>
  <part id="P1">
    <measure number="1" width="223.73">
      <print>
        <system-layout>
          <system-margins>
            <left-margin>0</left-margin>
            <right-margin>0</right-margin>
            </system-margins>
          <top-system-distance>105.51</top-system-distance>
          </system-layout>
        </print>
      <attributes>
        <divisions>1</divisions>
        <key>
          <fifths>0</fifths>
          </key>
        <time>
          <beats>4</beats>
          <beat-type>4</beat-type>
          </time>
        <clef>
          <sign>G</sign>
          <line>2</line>
          <clef-octave-change>-1</clef-octave-change>
          </clef>
        </attributes>
      <direction placement="above">
        <direction-type>
          <words relative-y="10">C</words>
          </direction-type>
        </direction>
      <note default-x="80.21" default-y="-15">
        <pitch>
          <step>C</step>
          <octave>4</octave>
          </pitch>
        <duration>1</duration>
        <voice>1</voice>
        <type>quarter</type>
        <stem>down</stem>
        <lyric number="1" default-x="6.5" default-y="-42.26" relative-y="-30">
          <syllabic>single</syllabic>
          <text>do</text>
          </lyric>
        </note>
      <direction placement="above">
        <direction-type>
          <words relative-y="10">C</words>
          </direction-type>
        </direction>
      <note default-x="115.64" default-y="-15">
        <pitch>
          <step>C</step>
          <octave>4</octave>
          </pitch>
        <duration>1</duration>
        <voice>1</voice>
        <type>quarter</type>
        <stem>down</stem>
        <lyric number="1" default-x="6.5" default-y="-42.26" relative-y="-30">
          <syllabic>single</syllabic>
          <text>do</text>
          </lyric>
        </note>
      <direction placement="above">
        <direction-type>
          <words relative-y="10">D</words>
          </direction-type>
        </direction>
      <note default-x="151.07" default-y="-10">
        <pitch>
          <step>D</step>
          <octave>4</octave>
          </pitch>
        <duration>1</duration>
        <voice>1</voice>
        <type>quarter</type>
        <stem>down</stem>
        <lyric number="1" default-x="6.5" default-y="-42.26" relative-y="-30">
          <syllabic>single</syllabic>
          <text>re</text>
          </lyric>
        </note>
      <direction placement="above">
        <direction-type>
          <words relative-y="10">E</words>
          </direction-type>
        </direction>
      <note default-x="186.5" default-y="-5">
        <pitch>
          <step>E</step>
          <octave>4</octave>
          </pitch>
        <duration>1</duration>
        <voice>1</voice>
        <type>quarter</type>
        <stem>down</stem>
        <lyric number="1" default-x="6.5" default-y="-42.26" relative-y="-30">
          <syllabic>single</syllabic>
          <text>mi</text>
          </lyric>
        </note>
      </measure>
    <measure number="2" width="138.3">
      <direction placement="above">
        <direction-type>
          <words relative-y="10">C</words>
          </direction-type>
        </direction>
      <note default-x="12.5" default-y="-15">
        <pitch>
          <step>C</step>
          <octave>4</octave>
          </pitch>
        <duration>1</duration>
        <voice>1</voice>
        <type>quarter</type>
        <stem>down</stem>
        <lyric number="1" default-x="6.5" default-y="-42.26" relative-y="-30">
          <syllabic>single</syllabic>
          <text>do</text>
          </lyric>
        </note>
      <direction placement="above">
        <direction-type>
          <words relative-y="10">E</words>
          </direction-type>
        </direction>
      <note default-x="47.93" default-y="-5">
        <pitch>
          <step>E</step>
          <octave>4</octave>
          </pitch>
        <duration>1</duration>
        <voice>1</voice>
        <type>quarter</type>
        <stem>down</stem>
        <lyric number="1" default-x="6.5" default-y="-42.26" relative-y="-30">
          <syllabic>single</syllabic>
          <text>mi</text>
          </lyric>
        </note>
      <direction placement="above">
        <direction-type>
          <words relative-y="10">D</words>
          </direction-type>
        </direction>
      <note default-x="83.36" default-y="-10">
        <pitch>
          <step>D</step>
          <octave>4</octave>
          </pitch>
        <duration>2</duration>
        <voice>1</voice>
        <type>half</type>
        <stem>down</stem>
        <lyric number="1" default-x="6.5" default-y="-42.26" relative-y="-30">
          <syllabic>single</syllabic>
          <text>re</text>
          </lyric>
        </note>
      </measure>
    <measure number="3" width="156.02">
      <direction placement="above">
        <direction-type>
          <words relative-y="10">C</words>
          </direction-type>
        </direction>
      <note default-x="12.5" default-y="-15">
        <pitch>
          <step>C</step>
          <octave>4</octave>
          </pitch>
        <duration>1</duration>
        <voice>1</voice>
        <type>quarter</type>
        <stem>down</stem>
        <lyric number="1" default-x="6.5" default-y="-42.26" relative-y="-30">
          <syllabic>single</syllabic>
          <text>do</text>
          </lyric>
        </note>
      <direction placement="above">
        <direction-type>
          <words relative-y="10">C</words>
          </direction-type>
        </direction>
      <note default-x="47.93" default-y="-15">
        <pitch>
          <step>C</step>
          <octave>4</octave>
          </pitch>
        <duration>1</duration>
        <voice>1</voice>
        <type>quarter</type>
        <stem>down</stem>
        <lyric number="1" default-x="6.5" default-y="-42.26" relative-y="-30">
          <syllabic>single</syllabic>
          <text>do</text>
          </lyric>
        </note>
      <direction placement="above">
        <direction-type>
          <words relative-y="10">D</words>
          </direction-type>
        </direction>
      <note default-x="83.36" default-y="-10">
        <pitch>
          <step>D</step>
          <octave>4</octave>
          </pitch>
        <duration>1</duration>
        <voice>1</voice>
        <type>quarter</type>
        <stem>down</stem>
        <lyric number="1" default-x="6.5" default-y="-42.26" relative-y="-30">
          <syllabic>single</syllabic>
          <text>re</text>
          </lyric>
        </note>
      <direction placement="above">
        <direction-type>
          <words relative-y="10">E</words>
          </direction-type>
        </direction>
      <note default-x="118.79" default-y="-5">
        <pitch>
          <step>E</step>
          <octave>4</octave>
          </pitch>
        <duration>1</duration>
        <voice>1</voice>
        <type>quarter</type>
        <stem>down</stem>
        <lyric number="1" default-x="6.5" default-y="-42.26" relative-y="-30">
          <syllabic>single</syllabic>
          <text>mi</text>
          </lyric>
        </note>
      </measure>
    <measure number="4" width="120.59">
      <direction placement="above">
        <direction-type>
          <words relative-y="10">C</words>
          </direction-type>
        </direction>
      <note default-x="12.5" default-y="-15">
        <pitch>
          <step>C</step>
          <octave>4</octave>
          </pitch>
        <duration>2</duration>
        <voice>1</voice>
        <type>half</type>
        <stem>down</stem>
        <lyric number="1" default-x="6.5" default-y="-42.26" relative-y="-30">
          <syllabic>single</syllabic>
          <text>do</text>
          </lyric>
        </note>
      <direction placement="above">
        <direction-type>
          <words relative-y="10">B</words>
          </direction-type>
        </direction>
      <note default-x="65.64" default-y="-20">
        <pitch>
          <step>B</step>
          <octave>3</octave>
          </pitch>
        <duration>2</duration>
        <voice>1</voice>
        <type>half</type>
        <stem>down</stem>
        <lyric number="1" default-x="6.5" default-y="-42.26" relative-y="-30">
          <syllabic>single</syllabic>
          <text>si</text>
          </lyric>
        </note>
      </measure>
    <measure number="5" width="200.33">
      <print new-system="yes">
        <system-layout>
          <system-margins>
            <left-margin>0</left-margin>
            <right-margin>0</right-margin>
            </system-margins>
          <system-distance>145</system-distance>
          </system-layout>
        </print>
      <direction placement="above">
        <direction-type>
          <words relative-y="10">C</words>
          </direction-type>
        </direction>
      <note default-x="58.09" default-y="-15">
        <pitch>
          <step>C</step>
          <octave>4</octave>
          </pitch>
        <duration>1</duration>
        <voice>1</voice>
        <type>quarter</type>
        <stem>down</stem>
        <lyric number="1" default-x="6.5" default-y="-42.26" relative-y="-30">
          <syllabic>single</syllabic>
          <text>do</text>
          </lyric>
        </note>
      <direction placement="above">
        <direction-type>
          <words relative-y="10">C</words>
          </direction-type>
        </direction>
      <note default-x="93.2" default-y="-15">
        <pitch>
          <step>C</step>
          <octave>4</octave>
          </pitch>
        <duration>1</duration>
        <voice>1</voice>
        <type>quarter</type>
        <stem>down</stem>
        <lyric number="1" default-x="6.5" default-y="-42.26" relative-y="-30">
          <syllabic>single</syllabic>
          <text>do</text>
          </lyric>
        </note>
      <direction placement="above">
        <direction-type>
          <words relative-y="10">D</words>
          </direction-type>
        </direction>
      <note default-x="128.31" default-y="-10">
        <pitch>
          <step>D</step>
          <octave>4</octave>
          </pitch>
        <duration>1</duration>
        <voice>1</voice>
        <type>quarter</type>
        <stem>down</stem>
        <lyric number="1" default-x="6.5" default-y="-42.26" relative-y="-30">
          <syllabic>single</syllabic>
          <text>re</text>
          </lyric>
        </note>
      <direction placement="above">
        <direction-type>
          <words relative-y="10">E</words>
          </direction-type>
        </direction>
      <note default-x="163.42" default-y="-5">
        <pitch>
          <step>E</step>
          <octave>4</octave>
          </pitch>
        <duration>1</duration>
        <voice>1</voice>
        <type>quarter</type>
        <stem>down</stem>
        <lyric number="1" default-x="6.5" default-y="-42.26" relative-y="-30">
          <syllabic>single</syllabic>
          <text>mi</text>
          </lyric>
        </note>
      </measure>
    <measure number="6" width="154.74">
      <direction placement="above">
        <direction-type>
          <words default-y="0.19" relative-y="10">F</words>
          </direction-type>
        </direction>
      <note default-x="12.5" default-y="0">
        <pitch>
          <step>F</step>
          <octave>4</octave>
          </pitch>
        <duration>1</duration>
        <voice>1</voice>
        <type>quarter</type>
        <stem>down</stem>
        <lyric number="1" default-x="6.5" default-y="-42.26" relative-y="-30">
          <syllabic>single</syllabic>
          <text>fa</text>
          </lyric>
        </note>
      <direction placement="above">
        <direction-type>
          <words relative-y="10">E</words>
          </direction-type>
        </direction>
      <note default-x="47.61" default-y="-5">
        <pitch>
          <step>E</step>
          <octave>4</octave>
          </pitch>
        <duration>1</duration>
        <voice>1</voice>
        <type>quarter</type>
        <stem>down</stem>
        <lyric number="1" default-x="6.5" default-y="-42.26" relative-y="-30">
          <syllabic>single</syllabic>
          <text>mi</text>
          </lyric>
        </note>
      <direction placement="above">
        <direction-type>
          <words relative-y="10">D</words>
          </direction-type>
        </direction>
      <note default-x="82.72" default-y="-10">
        <pitch>
          <step>D</step>
          <octave>4</octave>
          </pitch>
        <duration>1</duration>
        <voice>1</voice>
        <type>quarter</type>
        <stem>down</stem>
        <lyric number="1" default-x="6.5" default-y="-42.26" relative-y="-30">
          <syllabic>single</syllabic>
          <text>re</text>
          </lyric>
        </note>
      <direction placement="above">
        <direction-type>
          <words relative-y="10">C</words>
          </direction-type>
        </direction>
      <note default-x="117.83" default-y="-15">
        <pitch>
          <step>C</step>
          <octave>4</octave>
          </pitch>
        <duration>1</duration>
        <voice>1</voice>
        <type>quarter</type>
        <stem>down</stem>
        <lyric number="1" default-x="6.5" default-y="-42.26" relative-y="-30">
          <syllabic>single</syllabic>
          <text>do</text>
          </lyric>
        </note>
      </measure>
    <measure number="7" width="154.74">
      <direction placement="above">
        <direction-type>
          <words relative-y="10">B</words>
          </direction-type>
        </direction>
      <note default-x="12.5" default-y="-20">
        <pitch>
          <step>B</step>
          <octave>3</octave>
          </pitch>
        <duration>1</duration>
        <voice>1</voice>
        <type>quarter</type>
        <stem>down</stem>
        <lyric number="1" default-x="6.5" default-y="-42.26" relative-y="-30">
          <syllabic>single</syllabic>
          <text>si</text>
          </lyric>
        </note>
      <direction placement="above">
        <direction-type>
          <words default-y="0.5" relative-y="10">G</words>
          </direction-type>
        </direction>
      <note default-x="47.61" default-y="-30">
        <pitch>
          <step>G</step>
          <octave>3</octave>
          </pitch>
        <duration>1</duration>
        <voice>1</voice>
        <type>quarter</type>
        <stem>up</stem>
        <lyric number="1" default-x="6.5" default-y="-42.26" relative-y="-30">
          <syllabic>single</syllabic>
          <text>sol</text>
          </lyric>
        </note>
      <direction placement="above">
        <direction-type>
          <words default-y="2.5" relative-y="10">A</words>
          </direction-type>
        </direction>
      <note default-x="82.72" default-y="-25">
        <pitch>
          <step>A</step>
          <octave>3</octave>
          </pitch>
        <duration>1</duration>
        <voice>1</voice>
        <type>quarter</type>
        <stem>up</stem>
        <lyric number="1" default-x="6.5" default-y="-42.26" relative-y="-30">
          <syllabic>single</syllabic>
          <text>la</text>
          </lyric>
        </note>
      <direction placement="above">
        <direction-type>
          <words relative-y="10">B</words>
          </direction-type>
        </direction>
      <note default-x="117.83" default-y="-20">
        <pitch>
          <step>B</step>
          <octave>3</octave>
          </pitch>
        <duration>1</duration>
        <voice>1</voice>
        <type>quarter</type>
        <stem>down</stem>
        <lyric number="1" default-x="6.5" default-y="-42.26" relative-y="-30">
          <syllabic>single</syllabic>
          <text>si</text>
          </lyric>
        </note>
      </measure>
    <measure number="8" width="128.83">
      <direction placement="above">
        <direction-type>
          <words relative-y="10">C</words>
          </direction-type>
        </direction>
      <note default-x="12.5" default-y="-15">
        <pitch>
          <step>C</step>
          <octave>4</octave>
          </pitch>
        <duration>2</duration>
        <voice>1</voice>
        <type>half</type>
        <stem>down</stem>
        <lyric number="1" default-x="6.5" default-y="-42.26" relative-y="-30">
          <syllabic>single</syllabic>
          <text>do</text>
          </lyric>
        </note>
      <direction placement="above">
        <direction-type>
          <words relative-y="10">C</words>
          </direction-type>
        </direction>
      <note default-x="65.16" default-y="-15">
        <pitch>
          <step>C</step>
          <octave>4</octave>
          </pitch>
        <duration>2</duration>
        <voice>1</voice>
        <type>half</type>
        <stem>down</stem>
        <lyric number="1" default-x="6.5" default-y="-42.26" relative-y="-30">
          <syllabic>single</syllabic>
          <text>do</text>
          </lyric>
        </note>
      <barline location="right">
        <bar-style>light-heavy</bar-style>
        </barline>
      </measure>
    </part>
  </score-partwise>
