<?xml version="1.0" encoding="UTF-8"?>
<!DOCTYPE score-partwise PUBLIC "-//Recordare//DTD MusicXML 4.0 Partwise//EN" "http://www.musicxml.org/dtds/partwise.dtd">
<score-partwise version="4.0">
  <work>
    <work-title>未命名乐谱</work-title>
    </work>
  <identification>
    <creator type="composer">作曲 / 编排</creator>
    <encoding>
      <software>MuseScore 4.5.2</software>
      <encoding-date>2025-05-15</encoding-date>
      <supports element="accidental" type="yes"/>
      <supports element="beam" type="yes"/>
      <supports element="print" attribute="new-page" type="yes" value="yes"/>
      <supports element="print" attribute="new-system" type="yes" value="yes"/>
      <supports element="stem" type="yes"/>
      </encoding>
    </identification>
  <defaults>
    <scaling>
      <millimeters>9.9568</millimeters>
      <tenths>40</tenths>
      </scaling>
    <page-layout>
      <page-height>696.939</page-height>
      <page-width>869.388</page-width>
      <page-margins type="even">
        <left-margin>60.2603</left-margin>
        <right-margin>60.2603</right-margin>
        <top-margin>60.2603</top-margin>
        <bottom-margin>60.2603</bottom-margin>
        </page-margins>
      <page-margins type="odd">
        <left-margin>60.2603</left-margin>
        <right-margin>60.2603</right-margin>
        <top-margin>60.2603</top-margin>
        <bottom-margin>60.2603</bottom-margin>
        </page-margins>
      </page-layout>
    <appearance>
      <line-width type="light barline">1.8</line-width>
      <line-width type="heavy barline">5.5</line-width>
      <line-width type="beam">5</line-width>
      <line-width type="bracket">4.5</line-width>
      <line-width type="dashes">1</line-width>
      <line-width type="enclosure">1</line-width>
      <line-width type="ending">1.1</line-width>
      <line-width type="extend">1</line-width>
      <line-width type="leger">1.6</line-width>
      <line-width type="pedal">1.1</line-width>
      <line-width type="octave shift">1.1</line-width>
      <line-width type="slur middle">2.1</line-width>
      <line-width type="slur tip">0.5</line-width>
      <line-width type="staff">1.1</line-width>
      <line-width type="stem">1</line-width>
      <line-width type="tie middle">2.1</line-width>
      <line-width type="tie tip">0.5</line-width>
      <line-width type="tuplet bracket">1</line-width>
      <line-width type="wedge">1.2</line-width>
      <note-size type="cue">70</note-size>
      <note-size type="grace">70</note-size>
      <note-size type="grace-cue">49</note-size>
      </appearance>
    <music-font font-family="Leland"/>
    <word-font font-family="Edwin" font-size="10"/>
    <lyric-font font-family="Edwin" font-size="10"/>
    </defaults>
  <credit page="1">
    <credit-type>title</credit-type>
    <credit-words default-x="434.693878" default-y="636.678469" justify="center" valign="top" font-size="22">预备13-8</credit-words>
    </credit>
  <credit page="1">
    <credit-type>composer</credit-type>
    <credit-words default-x="809.127449" default-y="536.678469" justify="right" valign="bottom">作曲 / 编排</credit-words>
    </credit>
  <credit page="1">
    <credit-type>subtitle</credit-type>
    <credit-words default-x="434.693878" default-y="596.50492" justify="center" valign="top" font-size="14">《温柔地爱我》</credit-words>
    </credit>
  <part-list>
    <score-part id="P1">
      <part-name>古典吉他</part-name>
      <part-abbreviation>Guit.</part-abbreviation>
      <score-instrument id="P1-I1">
        <instrument-name>古典吉他</instrument-name>
        <instrument-sound>pluck.guitar.nylon-string</instrument-sound>
        </score-instrument>
      <midi-device id="P1-I1" port="1"></midi-device>
      <midi-instrument id="P1-I1">
        <midi-channel>1</midi-channel>
        <midi-program>25</midi-program>
        <volume>78.7402</volume>
        <pan>0</pan>
        </midi-instrument>
      </score-part>
    </part-list>
  <part id="P1">
    <measure number="1" width="213.42">
      <print>
        <system-layout>
          <system-margins>
            <left-margin>0</left-margin>
            <right-margin>0</right-margin>
            </system-margins>
          <top-system-distance>170</top-system-distance>
          </system-layout>
        </print>
      <attributes>
        <divisions>1</divisions>
        <key>
          <fifths>0</fifths>
          </key>
        <time>
          <beats>4</beats>
          <beat-type>4</beat-type>
          </time>
        <clef>
          <sign>G</sign>
          <line>2</line>
          <clef-octave-change>-1</clef-octave-change>
          </clef>
        </attributes>
      <direction placement="above" system="only-top">
        <direction-type>
          <metronome parentheses="no" default-x="-37.68" default-y="11.16" relative-y="20">
            <beat-unit>half</beat-unit>
            <per-minute>50</per-minute>
            </metronome>
          </direction-type>
        <sound tempo="100"/>
        </direction>
      <direction placement="above">
        <direction-type>
          <words default-y="0.57" relative-y="10">G</words>
          </direction-type>
        </direction>
      <note default-x="80.21" default-y="-30">
        <pitch>
          <step>G</step>
          <octave>3</octave>
          </pitch>
        <duration>1</duration>
        <voice>1</voice>
        <type>quarter</type>
        <stem>up</stem>
        <lyric number="1" default-x="6.5" default-y="-42.52" relative-y="-30">
          <syllabic>single</syllabic>
          <text>sol</text>
          </lyric>
        </note>
      <direction placement="above">
        <direction-type>
          <words relative-y="10">C</words>
          </direction-type>
        </direction>
      <note default-x="113.06" default-y="-15">
        <pitch>
          <step>C</step>
          <octave>4</octave>
          </pitch>
        <duration>1</duration>
        <voice>1</voice>
        <type>quarter</type>
        <stem>down</stem>
        <lyric number="1" default-x="6.5" default-y="-42.52" relative-y="-30">
          <syllabic>single</syllabic>
          <text>do</text>
          </lyric>
        </note>
      <direction placement="above">
        <direction-type>
          <words relative-y="10">B</words>
          </direction-type>
        </direction>
      <note default-x="145.92" default-y="-20">
        <pitch>
          <step>B</step>
          <octave>3</octave>
          </pitch>
        <duration>1</duration>
        <voice>1</voice>
        <type>quarter</type>
        <stem>down</stem>
        <lyric number="1" default-x="6.5" default-y="-42.52" relative-y="-30">
          <syllabic>single</syllabic>
          <text>si</text>
          </lyric>
        </note>
      <direction placement="above">
        <direction-type>
          <words relative-y="10">C</words>
          </direction-type>
        </direction>
      <note default-x="178.77" default-y="-15">
        <pitch>
          <step>C</step>
          <octave>4</octave>
          </pitch>
        <duration>1</duration>
        <voice>1</voice>
        <type>quarter</type>
        <stem>down</stem>
        <lyric number="1" default-x="6.5" default-y="-42.52" relative-y="-30">
          <syllabic>single</syllabic>
          <text>do</text>
          </lyric>
        </note>
      </measure>
    <measure number="2" width="129.78">
      <direction placement="above">
        <direction-type>
          <words relative-y="10">D</words>
          </direction-type>
        </direction>
      <note default-x="13" default-y="-10">
        <pitch>
          <step>D</step>
          <octave>4</octave>
          </pitch>
        <duration>1</duration>
        <voice>1</voice>
        <type>quarter</type>
        <stem>down</stem>
        <lyric number="1" default-x="6.5" default-y="-42.52" relative-y="-30">
          <syllabic>single</syllabic>
          <text>re</text>
          </lyric>
        </note>
      <direction placement="above">
        <direction-type>
          <words default-y="2.5" relative-y="10">A</words>
          </direction-type>
        </direction>
      <note default-x="45.85" default-y="-25">
        <pitch>
          <step>A</step>
          <octave>3</octave>
          </pitch>
        <duration>1</duration>
        <voice>1</voice>
        <type>quarter</type>
        <stem>up</stem>
        <lyric number="1" default-x="6.5" default-y="-42.52" relative-y="-30">
          <syllabic>single</syllabic>
          <text>la</text>
          </lyric>
        </note>
      <direction placement="above">
        <direction-type>
          <words relative-y="10">D</words>
          </direction-type>
        </direction>
      <note default-x="78.7" default-y="-10">
        <pitch>
          <step>D</step>
          <octave>4</octave>
          </pitch>
        <duration>2</duration>
        <voice>1</voice>
        <type>half</type>
        <stem>down</stem>
        <lyric number="1" default-x="6.5" default-y="-42.52" relative-y="-30">
          <syllabic>single</syllabic>
          <text>re</text>
          </lyric>
        </note>
      </measure>
    <measure number="3" width="146.21">
      <direction placement="above">
        <direction-type>
          <words relative-y="10">C</words>
          </direction-type>
        </direction>
      <note default-x="13" default-y="-15">
        <pitch>
          <step>C</step>
          <octave>4</octave>
          </pitch>
        <duration>1</duration>
        <voice>1</voice>
        <type>quarter</type>
        <stem>down</stem>
        <lyric number="1" default-x="6.5" default-y="-42.52" relative-y="-30">
          <syllabic>single</syllabic>
          <text>do</text>
          </lyric>
        </note>
      <direction placement="above">
        <direction-type>
          <words relative-y="10">B</words>
          </direction-type>
        </direction>
      <note default-x="45.85" default-y="-20">
        <pitch>
          <step>B</step>
          <octave>3</octave>
          </pitch>
        <duration>1</duration>
        <voice>1</voice>
        <type>quarter</type>
        <stem>down</stem>
        <lyric number="1" default-x="6.5" default-y="-42.52" relative-y="-30">
          <syllabic>single</syllabic>
          <text>si</text>
          </lyric>
        </note>
      <direction placement="above">
        <direction-type>
          <words default-y="2.5" relative-y="10">A</words>
          </direction-type>
        </direction>
      <note default-x="78.7" default-y="-25">
        <pitch>
          <step>A</step>
          <octave>3</octave>
          </pitch>
        <duration>1</duration>
        <voice>1</voice>
        <type>quarter</type>
        <stem>up</stem>
        <lyric number="1" default-x="6.5" default-y="-42.52" relative-y="-30">
          <syllabic>single</syllabic>
          <text>la</text>
          </lyric>
        </note>
      <direction placement="above">
        <direction-type>
          <words relative-y="10">B</words>
          </direction-type>
        </direction>
      <note default-x="111.56" default-y="-20">
        <pitch>
          <step>B</step>
          <octave>3</octave>
          </pitch>
        <duration>1</duration>
        <voice>1</voice>
        <type>quarter</type>
        <stem>down</stem>
        <lyric number="1" default-x="6.5" default-y="-42.52" relative-y="-30">
          <syllabic>single</syllabic>
          <text>si</text>
          </lyric>
        </note>
      </measure>
    <measure number="4" width="113.36">
      <direction placement="above">
        <direction-type>
          <words relative-y="10">C</words>
          </direction-type>
        </direction>
      <note default-x="13" default-y="-15">
        <pitch>
          <step>C</step>
          <octave>4</octave>
          </pitch>
        <duration>2</duration>
        <voice>1</voice>
        <type>half</type>
        <stem>down</stem>
        <lyric number="1" default-x="6.5" default-y="-42.52" relative-y="-30">
          <syllabic>single</syllabic>
          <text>do</text>
          </lyric>
        </note>
      <direction placement="above">
        <direction-type>
          <words default-y="0.57" relative-y="10">G</words>
          </direction-type>
        </direction>
      <note default-x="62.28" default-y="-30">
        <pitch>
          <step>G</step>
          <octave>3</octave>
          </pitch>
        <duration>2</duration>
        <voice>1</voice>
        <type>half</type>
        <stem>up</stem>
        <lyric number="1" default-x="6.5" default-y="-42.52" relative-y="-30">
          <syllabic>single</syllabic>
          <text>sol</text>
          </lyric>
        </note>
      </measure>
    <measure number="5" width="146.21">
      <direction placement="above">
        <direction-type>
          <words default-y="0.57" relative-y="10">G</words>
          </direction-type>
        </direction>
      <note default-x="13" default-y="-30">
        <pitch>
          <step>G</step>
          <octave>3</octave>
          </pitch>
        <duration>1</duration>
        <voice>1</voice>
        <type>quarter</type>
        <stem>up</stem>
        <lyric number="1" default-x="6.5" default-y="-42.52" relative-y="-30">
          <syllabic>single</syllabic>
          <text>sol</text>
          </lyric>
        </note>
      <direction placement="above">
        <direction-type>
          <words relative-y="10">C</words>
          </direction-type>
        </direction>
      <note default-x="45.85" default-y="-15">
        <pitch>
          <step>C</step>
          <octave>4</octave>
          </pitch>
        <duration>1</duration>
        <voice>1</voice>
        <type>quarter</type>
        <stem>down</stem>
        <lyric number="1" default-x="6.5" default-y="-42.52" relative-y="-30">
          <syllabic>single</syllabic>
          <text>do</text>
          </lyric>
        </note>
      <direction placement="above">
        <direction-type>
          <words relative-y="10">B</words>
          </direction-type>
        </direction>
      <note default-x="78.7" default-y="-20">
        <pitch>
          <step>B</step>
          <octave>3</octave>
          </pitch>
        <duration>1</duration>
        <voice>1</voice>
        <type>quarter</type>
        <stem>down</stem>
        <lyric number="1" default-x="6.5" default-y="-42.52" relative-y="-30">
          <syllabic>single</syllabic>
          <text>si</text>
          </lyric>
        </note>
      <direction placement="above">
        <direction-type>
          <words relative-y="10">C</words>
          </direction-type>
        </direction>
      <note default-x="111.56" default-y="-15">
        <pitch>
          <step>C</step>
          <octave>4</octave>
          </pitch>
        <duration>1</duration>
        <voice>1</voice>
        <type>quarter</type>
        <stem>down</stem>
        <lyric number="1" default-x="6.5" default-y="-42.52" relative-y="-30">
          <syllabic>single</syllabic>
          <text>do</text>
          </lyric>
        </note>
      </measure>
    <measure number="6" width="163.48">
      <print new-system="yes">
        <system-layout>
          <system-margins>
            <left-margin>0</left-margin>
            <right-margin>0</right-margin>
            </system-margins>
          <system-distance>108.21</system-distance>
          </system-layout>
        </print>
      <direction placement="above">
        <direction-type>
          <words relative-y="10">D</words>
          </direction-type>
        </direction>
      <note default-x="58.09" default-y="-10">
        <pitch>
          <step>D</step>
          <octave>4</octave>
          </pitch>
        <duration>1</duration>
        <voice>1</voice>
        <type>quarter</type>
        <stem>down</stem>
        <lyric number="1" default-x="6.5" default-y="-42.52" relative-y="-30">
          <syllabic>single</syllabic>
          <text>re</text>
          </lyric>
        </note>
      <direction placement="above">
        <direction-type>
          <words default-y="2.5" relative-y="10">A</words>
          </direction-type>
        </direction>
      <note default-x="87.69" default-y="-25">
        <pitch>
          <step>A</step>
          <octave>3</octave>
          </pitch>
        <duration>1</duration>
        <voice>1</voice>
        <type>quarter</type>
        <stem>up</stem>
        <lyric number="1" default-x="6.5" default-y="-42.52" relative-y="-30">
          <syllabic>single</syllabic>
          <text>la</text>
          </lyric>
        </note>
      <direction placement="above">
        <direction-type>
          <words relative-y="10">D</words>
          </direction-type>
        </direction>
      <note default-x="117.29" default-y="-10">
        <pitch>
          <step>D</step>
          <octave>4</octave>
          </pitch>
        <duration>2</duration>
        <voice>1</voice>
        <type>half</type>
        <stem>down</stem>
        <lyric number="1" default-x="6.5" default-y="-42.52" relative-y="-30">
          <syllabic>single</syllabic>
          <text>re</text>
          </lyric>
        </note>
      </measure>
    <measure number="7" width="133.19">
      <direction placement="above">
        <direction-type>
          <words relative-y="10">C</words>
          </direction-type>
        </direction>
      <note default-x="13" default-y="-15">
        <pitch>
          <step>C</step>
          <octave>4</octave>
          </pitch>
        <duration>1</duration>
        <voice>1</voice>
        <type>quarter</type>
        <stem>down</stem>
        <lyric number="1" default-x="6.5" default-y="-42.52" relative-y="-30">
          <syllabic>single</syllabic>
          <text>do</text>
          </lyric>
        </note>
      <direction placement="above">
        <direction-type>
          <words relative-y="10">B</words>
          </direction-type>
        </direction>
      <note default-x="42.6" default-y="-20">
        <pitch>
          <step>B</step>
          <octave>3</octave>
          </pitch>
        <duration>1</duration>
        <voice>1</voice>
        <type>quarter</type>
        <stem>down</stem>
        <lyric number="1" default-x="6.5" default-y="-42.52" relative-y="-30">
          <syllabic>single</syllabic>
          <text>si</text>
          </lyric>
        </note>
      <direction placement="above">
        <direction-type>
          <words default-y="2.5" relative-y="10">A</words>
          </direction-type>
        </direction>
      <note default-x="72.19" default-y="-25">
        <pitch>
          <step>A</step>
          <octave>3</octave>
          </pitch>
        <duration>1</duration>
        <voice>1</voice>
        <type>quarter</type>
        <stem>up</stem>
        <lyric number="1" default-x="6.5" default-y="-42.52" relative-y="-30">
          <syllabic>single</syllabic>
          <text>la</text>
          </lyric>
        </note>
      <direction placement="above">
        <direction-type>
          <words relative-y="10">B</words>
          </direction-type>
        </direction>
      <note default-x="101.79" default-y="-20">
        <pitch>
          <step>B</step>
          <octave>3</octave>
          </pitch>
        <duration>1</duration>
        <voice>1</voice>
        <type>quarter</type>
        <stem>down</stem>
        <lyric number="1" default-x="6.5" default-y="-42.52" relative-y="-30">
          <syllabic>single</syllabic>
          <text>si</text>
          </lyric>
        </note>
      </measure>
    <measure number="8" width="82.35">
      <direction placement="above">
        <direction-type>
          <words relative-y="10">C</words>
          </direction-type>
        </direction>
      <note default-x="13" default-y="-15">
        <pitch>
          <step>C</step>
          <octave>4</octave>
          </pitch>
        <duration>4</duration>
        <voice>1</voice>
        <type>whole</type>
        <lyric number="1" default-x="7.46" default-y="-42.52" relative-y="-30">
          <syllabic>single</syllabic>
          <text>do</text>
          </lyric>
        </note>
      </measure>
    <measure number="9" width="118.39">
      <direction placement="above">
        <direction-type>
          <words relative-y="10">E</words>
          </direction-type>
        </direction>
      <note default-x="13" default-y="-5">
        <pitch>
          <step>E</step>
          <octave>4</octave>
          </pitch>
        <duration>1</duration>
        <voice>1</voice>
        <type>quarter</type>
        <stem>down</stem>
        <lyric number="1" default-x="6.5" default-y="-42.52" relative-y="-30">
          <syllabic>single</syllabic>
          <text>mi</text>
          </lyric>
        </note>
      <direction placement="above">
        <direction-type>
          <words relative-y="10">E</words>
          </direction-type>
        </direction>
      <note default-x="42.6" default-y="-5">
        <pitch>
          <step>E</step>
          <octave>4</octave>
          </pitch>
        <duration>1</duration>
        <voice>1</voice>
        <type>quarter</type>
        <stem>down</stem>
        <lyric number="1" default-x="6.5" default-y="-42.52" relative-y="-30">
          <syllabic>single</syllabic>
          <text>mi</text>
          </lyric>
        </note>
      <direction placement="above">
        <direction-type>
          <words relative-y="10">E</words>
          </direction-type>
        </direction>
      <note default-x="72.19" default-y="-5">
        <pitch>
          <step>E</step>
          <octave>4</octave>
          </pitch>
        <duration>2</duration>
        <voice>1</voice>
        <type>half</type>
        <stem>down</stem>
        <lyric number="1" default-x="6.5" default-y="-42.52" relative-y="-30">
          <syllabic>single</syllabic>
          <text>mi</text>
          </lyric>
        </note>
      </measure>
    <measure number="10" width="118.39">
      <direction placement="above">
        <direction-type>
          <words relative-y="10">E</words>
          </direction-type>
        </direction>
      <note default-x="13" default-y="-5">
        <pitch>
          <step>E</step>
          <octave>4</octave>
          </pitch>
        <duration>1</duration>
        <voice>1</voice>
        <type>quarter</type>
        <stem>down</stem>
        <lyric number="1" default-x="6.5" default-y="-42.52" relative-y="-30">
          <syllabic>single</syllabic>
          <text>mi</text>
          </lyric>
        </note>
      <direction placement="above">
        <direction-type>
          <words relative-y="10">E</words>
          </direction-type>
        </direction>
      <note default-x="42.6" default-y="-5">
        <pitch>
          <step>E</step>
          <octave>4</octave>
          </pitch>
        <duration>1</duration>
        <voice>1</voice>
        <type>quarter</type>
        <stem>down</stem>
        <lyric number="1" default-x="6.5" default-y="-42.52" relative-y="-30">
          <syllabic>single</syllabic>
          <text>mi</text>
          </lyric>
        </note>
      <direction placement="above">
        <direction-type>
          <words relative-y="10">E</words>
          </direction-type>
        </direction>
      <note default-x="72.19" default-y="-5">
        <pitch>
          <step>E</step>
          <octave>4</octave>
          </pitch>
        <duration>2</duration>
        <voice>1</voice>
        <type>half</type>
        <stem>down</stem>
        <lyric number="1" default-x="6.5" default-y="-42.52" relative-y="-30">
          <syllabic>single</syllabic>
          <text>mi</text>
          </lyric>
        </note>
      </measure>
    <measure number="11" width="133.19">
      <direction placement="above">
        <direction-type>
          <words relative-y="10">E</words>
          </direction-type>
        </direction>
      <note default-x="13" default-y="-5">
        <pitch>
          <step>E</step>
          <octave>4</octave>
          </pitch>
        <duration>1</duration>
        <voice>1</voice>
        <type>quarter</type>
        <stem>down</stem>
        <lyric number="1" default-x="6.5" default-y="-42.52" relative-y="-30">
          <syllabic>single</syllabic>
          <text>mi</text>
          </lyric>
        </note>
      <direction placement="above">
        <direction-type>
          <words relative-y="10">D</words>
          </direction-type>
        </direction>
      <note default-x="42.6" default-y="-10">
        <pitch>
          <step>D</step>
          <octave>4</octave>
          </pitch>
        <duration>1</duration>
        <voice>1</voice>
        <type>quarter</type>
        <stem>down</stem>
        <lyric number="1" default-x="6.5" default-y="-42.52" relative-y="-30">
          <syllabic>single</syllabic>
          <text>re</text>
          </lyric>
        </note>
      <direction placement="above">
        <direction-type>
          <words relative-y="10">C</words>
          </direction-type>
        </direction>
      <note default-x="72.19" default-y="-15">
        <pitch>
          <step>C</step>
          <octave>4</octave>
          </pitch>
        <duration>1</duration>
        <voice>1</voice>
        <type>quarter</type>
        <stem>down</stem>
        <lyric number="1" default-x="6.5" default-y="-42.52" relative-y="-30">
          <syllabic>single</syllabic>
          <text>do</text>
          </lyric>
        </note>
      <direction placement="above">
        <direction-type>
          <words relative-y="10">D</words>
          </direction-type>
        </direction>
      <note default-x="101.79" default-y="-10">
        <pitch>
          <step>D</step>
          <octave>4</octave>
          </pitch>
        <duration>1</duration>
        <voice>1</voice>
        <type>quarter</type>
        <stem>down</stem>
        <lyric number="1" default-x="6.5" default-y="-42.52" relative-y="-30">
          <syllabic>single</syllabic>
          <text>re</text>
          </lyric>
        </note>
      </measure>
    <measure number="12" width="147.04">
      <print new-system="yes">
        <system-layout>
          <system-margins>
            <left-margin>0</left-margin>
            <right-margin>0</right-margin>
            </system-margins>
          <system-distance>108.21</system-distance>
          </system-layout>
        </print>
      <direction placement="above">
        <direction-type>
          <words relative-y="10">E</words>
          </direction-type>
        </direction>
      <note default-x="57.13" default-y="-5">
        <pitch>
          <step>E</step>
          <octave>4</octave>
          </pitch>
        <duration>4</duration>
        <voice>1</voice>
        <type>whole</type>
        <lyric number="1" default-x="7.46" default-y="-42.52" relative-y="-30">
          <syllabic>single</syllabic>
          <text>mi</text>
          </lyric>
        </note>
      </measure>
    <measure number="13" width="169.73">
      <direction placement="above">
        <direction-type>
          <words relative-y="10">E</words>
          </direction-type>
        </direction>
      <note default-x="13" default-y="-5">
        <pitch>
          <step>E</step>
          <octave>4</octave>
          </pitch>
        <duration>1</duration>
        <voice>1</voice>
        <type>quarter</type>
        <stem>down</stem>
        <lyric number="1" default-x="6.5" default-y="-42.52" relative-y="-30">
          <syllabic>single</syllabic>
          <text>mi</text>
          </lyric>
        </note>
      <direction placement="above">
        <direction-type>
          <words relative-y="10">E</words>
          </direction-type>
        </direction>
      <note default-x="51.73" default-y="-5">
        <pitch>
          <step>E</step>
          <octave>4</octave>
          </pitch>
        <duration>1</duration>
        <voice>1</voice>
        <type>quarter</type>
        <stem>down</stem>
        <lyric number="1" default-x="6.5" default-y="-42.52" relative-y="-30">
          <syllabic>single</syllabic>
          <text>mi</text>
          </lyric>
        </note>
      <direction placement="above">
        <direction-type>
          <words default-y="0.19" relative-y="10">F</words>
          </direction-type>
        </direction>
      <note default-x="90.47" default-y="0">
        <pitch>
          <step>F</step>
          <octave>4</octave>
          </pitch>
        <duration>1</duration>
        <voice>1</voice>
        <type>quarter</type>
        <stem>down</stem>
        <lyric number="1" default-x="6.5" default-y="-42.52" relative-y="-30">
          <syllabic>single</syllabic>
          <text>fa</text>
          </lyric>
        </note>
      <direction placement="above">
        <direction-type>
          <words relative-y="10">E</words>
          </direction-type>
        </direction>
      <note default-x="129.2" default-y="-5">
        <pitch>
          <step>E</step>
          <octave>4</octave>
          </pitch>
        <duration>1</duration>
        <voice>1</voice>
        <type>quarter</type>
        <stem>down</stem>
        <lyric number="1" default-x="6.5" default-y="-42.52" relative-y="-30">
          <syllabic>single</syllabic>
          <text>mi</text>
          </lyric>
        </note>
      </measure>
    <measure number="14" width="150.36">
      <direction placement="above">
        <direction-type>
          <words relative-y="10">D</words>
          </direction-type>
        </direction>
      <note default-x="13" default-y="-10">
        <pitch>
          <step>D</step>
          <octave>4</octave>
          </pitch>
        <duration>1</duration>
        <voice>1</voice>
        <type>quarter</type>
        <stem>down</stem>
        <lyric number="1" default-x="6.5" default-y="-42.52" relative-y="-30">
          <syllabic>single</syllabic>
          <text>re</text>
          </lyric>
        </note>
      <direction placement="above">
        <direction-type>
          <words default-y="2.5" relative-y="10">A</words>
          </direction-type>
        </direction>
      <note default-x="51.73" default-y="-25">
        <pitch>
          <step>A</step>
          <octave>3</octave>
          </pitch>
        <duration>1</duration>
        <voice>1</voice>
        <type>quarter</type>
        <stem>up</stem>
        <lyric number="1" default-x="6.5" default-y="-42.52" relative-y="-30">
          <syllabic>single</syllabic>
          <text>la</text>
          </lyric>
        </note>
      <direction placement="above">
        <direction-type>
          <words relative-y="10">D</words>
          </direction-type>
        </direction>
      <note default-x="90.47" default-y="-10">
        <pitch>
          <step>D</step>
          <octave>4</octave>
          </pitch>
        <duration>2</duration>
        <voice>1</voice>
        <type>half</type>
        <stem>down</stem>
        <lyric number="1" default-x="6.5" default-y="-42.52" relative-y="-30">
          <syllabic>single</syllabic>
          <text>re</text>
          </lyric>
        </note>
      </measure>
    <measure number="15" width="169.73">
      <direction placement="above">
        <direction-type>
          <words relative-y="10">C</words>
          </direction-type>
        </direction>
      <note default-x="13" default-y="-15">
        <pitch>
          <step>C</step>
          <octave>4</octave>
          </pitch>
        <duration>1</duration>
        <voice>1</voice>
        <type>quarter</type>
        <stem>down</stem>
        <lyric number="1" default-x="6.5" default-y="-42.52" relative-y="-30">
          <syllabic>single</syllabic>
          <text>do</text>
          </lyric>
        </note>
      <direction placement="above">
        <direction-type>
          <words relative-y="10">B</words>
          </direction-type>
        </direction>
      <note default-x="51.73" default-y="-20">
        <pitch>
          <step>B</step>
          <octave>3</octave>
          </pitch>
        <duration>1</duration>
        <voice>1</voice>
        <type>quarter</type>
        <stem>down</stem>
        <lyric number="1" default-x="6.5" default-y="-42.52" relative-y="-30">
          <syllabic>single</syllabic>
          <text>si</text>
          </lyric>
        </note>
      <direction placement="above">
        <direction-type>
          <words default-y="2.5" relative-y="10">A</words>
          </direction-type>
        </direction>
      <note default-x="90.47" default-y="-25">
        <pitch>
          <step>A</step>
          <octave>3</octave>
          </pitch>
        <duration>1</duration>
        <voice>1</voice>
        <type>quarter</type>
        <stem>up</stem>
        <lyric number="1" default-x="6.5" default-y="-42.52" relative-y="-30">
          <syllabic>single</syllabic>
          <text>la</text>
          </lyric>
        </note>
      <direction placement="above">
        <direction-type>
          <words relative-y="10">B</words>
          </direction-type>
        </direction>
      <note default-x="129.2" default-y="-20">
        <pitch>
          <step>B</step>
          <octave>3</octave>
          </pitch>
        <duration>1</duration>
        <voice>1</voice>
        <type>quarter</type>
        <stem>down</stem>
        <lyric number="1" default-x="6.5" default-y="-42.52" relative-y="-30">
          <syllabic>single</syllabic>
          <text>si</text>
          </lyric>
        </note>
      </measure>
    <measure number="16" width="112.11">
      <direction placement="above">
        <direction-type>
          <words relative-y="10">C</words>
          </direction-type>
        </direction>
      <note default-x="13" default-y="-15">
        <pitch>
          <step>C</step>
          <octave>4</octave>
          </pitch>
        <duration>4</duration>
        <voice>1</voice>
        <type>whole</type>
        <lyric number="1" default-x="7.46" default-y="-42.52" relative-y="-30">
          <syllabic>single</syllabic>
          <text>do</text>
          </lyric>
        </note>
      <barline location="right">
        <bar-style>light-heavy</bar-style>
        </barline>
      </measure>
    </part>
  </score-partwise>
